<svg width="36" height="36" viewBox="0 0 36 36" fill="none" xmlns="http://www.w3.org/2000/svg">
<path d="M0 4.5C0 3.90326 0.237053 3.33097 0.65901 2.90901C1.08097 2.48705 1.65326 2.25 2.25 2.25H33.75C34.3467 2.25 34.919 2.48705 35.341 2.90901C35.7629 3.33097 36 3.90326 36 4.5V9C36 9.59674 35.7629 10.169 35.341 10.591C34.919 11.0129 34.3467 11.25 33.75 11.25V28.125C33.75 29.6168 33.1574 31.0476 32.1025 32.1025C31.0476 33.1574 29.6168 33.75 28.125 33.75H7.875C6.38316 33.75 4.95242 33.1574 3.89752 32.1025C2.84263 31.0476 2.25 29.6168 2.25 28.125V11.25C1.65326 11.25 1.08097 11.0129 0.65901 10.591C0.237053 10.169 0 9.59674 0 9V4.5ZM4.5 11.25V28.125C4.5 29.0201 4.85558 29.8786 5.48851 30.5115C6.12145 31.1444 6.97989 31.5 7.875 31.5H28.125C29.0201 31.5 29.8786 31.1444 30.5115 30.5115C31.1444 29.8786 31.5 29.0201 31.5 28.125V11.25H4.5ZM33.75 4.5H2.25V9H33.75V4.5ZM11.25 16.875C11.25 16.5766 11.3685 16.2905 11.5795 16.0795C11.7905 15.8685 12.0766 15.75 12.375 15.75H23.625C23.9234 15.75 24.2095 15.8685 24.4205 16.0795C24.6315 16.2905 24.75 16.5766 24.75 16.875C24.75 17.1734 24.6315 17.4595 24.4205 17.6705C24.2095 17.8815 23.9234 18 23.625 18H12.375C12.0766 18 11.7905 17.8815 11.5795 17.6705C11.3685 17.4595 11.25 17.1734 11.25 16.875Z" fill="white"/>
</svg>
