<svg width="100" height="100" viewBox="0 0 100 100" fill="none" xmlns="http://www.w3.org/2000/svg">
<path d="M59.375 78.125C59.3741 79.8435 58.9008 81.5287 58.007 82.9965C57.1131 84.4642 55.8329 85.6581 54.3064 86.4475C52.7799 87.2369 51.0658 87.5915 49.3514 87.4726C47.637 87.3537 45.9883 86.7659 44.5853 85.7733C43.1824 84.7808 42.0793 83.4217 41.3966 81.8446C40.7139 80.2675 40.4777 78.5331 40.7141 76.8309C40.9504 75.1287 41.6501 73.5242 42.7366 72.1927C43.8231 70.8613 45.2548 69.8541 46.875 69.2812V40.625C46.875 39.7962 47.2042 39.0013 47.7903 38.4153C48.3763 37.8292 49.1712 37.5 50 37.5C50.8288 37.5 51.6237 37.8292 52.2097 38.4153C52.7958 39.0013 53.125 39.7962 53.125 40.625V69.2812C54.9536 69.9278 56.5367 71.1255 57.6561 72.7094C58.7755 74.2934 59.376 76.1855 59.375 78.125Z" fill="white"/>
<path d="M34.25 15.625C34.25 11.481 35.8962 7.50671 38.8265 4.57646C41.7567 1.6462 45.731 0 49.875 0C54.019 0 57.9933 1.6462 60.9235 4.57646C63.8538 7.50671 65.5 11.481 65.5 15.625V62.8125C68.5146 65.8893 70.5537 69.7875 71.3617 74.0185C72.1697 78.2495 71.7106 82.6249 70.0419 86.596C68.3732 90.5671 65.5693 93.9572 61.9817 96.3412C58.3941 98.7251 54.1825 99.9968 49.875 99.9968C45.5676 99.9968 41.356 98.7251 37.7684 96.3412C34.1807 93.9572 31.3768 90.5671 29.7081 86.596C28.0394 82.6249 27.5803 78.2495 28.3883 74.0185C29.1963 69.7875 31.2354 65.8893 34.25 62.8125V15.625ZM49.875 6.25C47.3886 6.25 45.004 7.23772 43.2459 8.99587C41.4877 10.754 40.5 13.1386 40.5 15.625V65.5438L39.4563 66.4813C37.0973 68.5908 35.4346 71.3668 34.688 74.4421C33.9414 77.5173 34.1461 80.7468 35.2752 83.7031C36.4042 86.6594 38.4044 89.2032 41.0108 90.9978C43.6173 92.7925 46.7073 93.7534 49.8719 93.7534C53.0365 93.7534 56.1264 92.7925 58.7329 90.9978C61.3394 89.2032 63.3395 86.6594 64.4686 83.7031C65.5976 80.7468 65.8024 77.5173 65.0558 74.4421C64.3092 71.3668 62.6464 68.5908 60.2875 66.4813L59.25 65.5438V15.625C59.25 13.1386 58.2623 10.754 56.5041 8.99587C54.746 7.23772 52.3614 6.25 49.875 6.25Z" fill="white"/>
</svg>
